<svg xmlns="http://www.w3.org/2000/svg" version="1.1" xmlns:xlink="http://www.w3.org/1999/xlink" xmlns:svgjs="http://svgjs.dev/svgjs" width="1500" height="1500" viewBox="0 0 1500 1500"><rect width="1500" height="1500" fill="#000000"></rect><g transform="matrix(0.6666666666666666,0,0,0.6666666666666666,249.39393939393938,595.9190165659445)"><svg viewBox="0 0 396 122" data-background-color="#ffffff" preserveAspectRatio="xMidYMid meet" height="462" width="1500" xmlns="http://www.w3.org/2000/svg" xmlns:xlink="http://www.w3.org/1999/xlink"><g id="tight-bounds" transform="matrix(1,0,0,1,0.2400000000000091,0.03207785374922878)"><svg viewBox="0 0 395.52 121.93584429250156" height="121.93584429250156" width="395.52"><g><svg viewBox="0 0 618.9241551428104 190.80966679399728" height="121.93584429250156" width="395.52"><g transform="matrix(1,0,0,1,223.40415514281037,26.37094526603002)"><svg viewBox="0 0 395.52 138.06777626193724" height="138.06777626193724" width="395.52"><g id="textblocktransform"><svg viewBox="0 0 395.52 138.06777626193724" height="138.06777626193724" width="395.52" id="textblock"><g><svg viewBox="0 0 395.52 138.06777626193724" height="138.06777626193724" width="395.52"><g transform="matrix(1,0,0,1,0,0)"><svg width="395.52" viewBox="0.39 -33.67 143.15 49.980000000000004" height="138.06777626193724" data-palette-color="#000000"><path d="M11.38-19.58L11.38-17.75 6.3-17.75 6.3-8.03Q6.3-5.93 6.35-4.09 6.4-2.25 6.92-1.57 7.45-0.9 8.45-0.9L8.45-0.9Q10.23-0.9 12.26-1.88L12.26-1.88 12.26-0.56Q9.67 0.81 7.84 0.81L7.84 0.81Q6.1 0.81 5.16 0.23 4.22-0.34 3.8-1.26 3.37-2.17 3.3-3.32 3.22-4.47 3.22-5.62L3.22-5.62 3.22-16.09Q3.22-16.63 3.21-16.92 3.2-17.21 3.11-17.43 3.03-17.65 2.71-17.7 2.39-17.75 1.76-17.75L1.76-17.75 0.39-17.75 0.39-18.9Q2.73-19.9 3.61-20.83 4.49-21.75 5.49-24.05L5.49-24.05 6.3-24.05 6.3-19.58 11.38-19.58ZM23.14-20.17L23.14-20.17Q27.83-20.17 29.03-16.5L29.03-16.5Q29.56-14.84 29.32-13.26L29.32-13.26 17.62-13.26Q17.31-11.5 17.31-9.99L17.31-9.99Q17.31-4.83 20.38-2.95L20.38-2.95Q22.02-1.95 24.31-1.95L24.31-1.95Q26.71-1.95 29.12-3.71L29.12-3.71 29.83-2.98 29.15-2.17Q26.36 0.73 22.56 0.76L22.56 0.76Q20.29 0.76 18.36-0.61L18.36-0.61Q14.48-3.37 14.48-8.96L14.48-8.96Q14.48-14.87 17.77-17.92L17.77-17.92Q20.26-20.09 23.14-20.17ZM17.87-14.84L17.87-14.84 26.17-14.84Q26.17-16.77 25.29-17.71 24.41-18.65 23.04-18.65L23.04-18.65Q20.92-18.65 19.58-17.4 18.23-16.14 17.87-14.84ZM37.28-15.55L37.28-15.55Q35.83-13.01 35.83-9.58 35.83-6.15 37.71-4 39.59-1.86 42.5-1.84 45.41-1.83 47.82-3.08L47.82-3.08 48.6-2.22Q47.43-1.1 46.82-0.68L46.82-0.68Q44.62 0.78 41.79 0.81L41.79 0.81Q36.25 0.81 34-3.91L34-3.91Q32.81-6.4 32.81-9.47L32.81-9.47Q32.81-14.62 35.93-17.58L35.93-17.58Q38.59-20.09 42.11-20.09L42.11-20.09Q45.67-20.09 49.04-17.7L49.04-17.7Q49.46-17.43 49.14-16.38 48.82-15.33 47.82-14.92L47.82-14.92Q47.07-14.92 46.27-16.05 45.48-17.19 45.36-17.31L45.36-17.31Q44.16-18.63 42.23-18.65L42.23-18.65Q39.06-18.65 37.28-15.55ZM63.59-17.9L63.59-17.9Q60.08-17.9 57.46-16.04L57.46-16.04 57.46-5.1Q57.46-2.86 57.79-2.19 58.12-1.51 59.27-1.27L59.27-1.27 60.69-1 60.69 0 51.46 0 51.46-1.03 53.14-1.39Q54.05-1.59 54.24-1.95L54.24-1.95Q54.44-2.37 54.44-3.74L54.44-3.74 54.44-28.44Q54.44-30.1 54.31-30.42L54.31-30.42Q54-31.32 51.58-31.32L51.58-31.32 51.46-32.15 57.46-33.67 57.46-17.82Q61.54-20.09 64.54-20.09L64.54-20.09Q68.3-20.09 69.6-16.7L69.6-16.7Q70.18-15.09 70.21-12.84L70.21-12.84 70.21-5.05Q70.21-2.81 70.54-2.14 70.87-1.46 71.99-1.25L71.99-1.25 73.43-0.95 73.43 0.05 64.2 0.05 64.2-1 65.86-1.34Q66.79-1.54 66.98-1.93L66.98-1.93Q67.18-2.34 67.18-3.71L67.18-3.71 67.18-12.06Q67.13-17.85 63.59-17.9ZM77.36 16.31L77.36 16.31Q75.6 16.31 75.58 15.11L75.58 15.11Q75.58 14.21 76.13 13.71 76.67 13.21 77.08 13.21 77.48 13.21 78.3 13.4 79.12 13.6 79.27 13.16 79.43 12.72 79.43 11.84L79.43 11.84 79.43-14.72Q79.43-16.41 79.29-16.77L79.29-16.77Q78.95-17.63 76.58-17.63L76.58-17.63 76.45-18.46 82.46-19.97 82.46 2.34Q82.46 8.3 81.11 12.29 79.75 16.28 77.36 16.31ZM78.16-29.52L78.16-29.52Q78.16-30.37 78.74-30.97 79.31-31.57 80.17-31.57L80.17-31.57Q81-31.57 81.59-30.97 82.19-30.37 82.19-29.52L82.19-29.52Q82.19-28.69 81.59-28.11 81-27.54 80.17-27.54L80.17-27.54Q79.31-27.54 78.74-28.11 78.16-28.69 78.16-29.52ZM87.24-9.35L87.24-9.35Q87.24-13.79 89.78-16.88 92.32-19.97 95.96-19.97L95.96-19.97Q99.65-19.97 102.4-17.09 105.16-14.21 105.16-9.84L105.16-9.84Q105.16-5.47 102.77-2.56L102.77-2.56Q100.01 0.78 96.42 0.78L96.42 0.78Q92.59 0.81 89.93-2.09 87.27-4.98 87.24-9.35ZM95.59-18.14L95.59-18.14Q93.01-18.14 91.61-15.8 90.22-13.45 90.22-9.96L90.22-9.96Q90.22-6.49 91.99-3.77 93.76-1.05 96.67-1.03L96.67-1.03Q99.38-1.03 100.73-3.41 102.09-5.79 102.09-9.01L102.09-9.01Q102.09-12.45 100.43-15.28 98.77-18.12 95.59-18.14ZM108.31-32.15L114.32-33.67 114.32-18.31Q116.76-20.09 120.1-20.09L120.1-20.09Q123.47-20.09 125.95-17.52 128.43-14.94 128.43-10.12 128.43-5.3 125.62-2.34L125.62-2.34Q122.62 0.81 118.56 0.81L118.56 0.81Q116.86 0.81 115.04 0.37 113.22-0.07 112.27-0.51L112.27-0.51 111.31-0.95 111.31-28.42Q111.31-30.1 111.17-30.47L111.17-30.47Q110.82-31.32 108.43-31.32L108.43-31.32 108.31-32.15ZM114.32-16.24L114.32-2.27Q116.29-1.07 118.49-1.07L118.49-1.07Q121.05-1.07 123.25-2.95 125.45-4.83 125.45-9.11L125.45-9.11Q125.45-14.67 121.91-16.82L121.91-16.82Q120.27-17.8 118.42-17.8L118.42-17.8Q116.27-17.82 114.32-16.24L114.32-16.24ZM143.05-18.7L143.05-18.7 142.93-14.92 141.66-14.92Q141.51-17.43 140.14-18.26L140.14-18.26Q139.31-18.75 138.07-18.75L138.07-18.75Q136.73-18.75 136.03-17.91 135.33-17.07 135.33-15.75L135.33-15.75Q135.36-14.21 137.12-12.74L137.12-12.74 140.34-9.94Q142.34-8.15 142.94-6.97 143.54-5.79 143.54-4.61L143.54-4.61Q143.54-1.78 141.19-0.27L141.19-0.27Q139.51 0.81 136.95 0.78L136.95 0.78Q134.41 0.78 131.92-0.51L131.92-0.51 131.62-4.37 132.82-4.37Q133.31-2.27 134.11-1.45 134.92-0.63 136.85-0.63L136.85-0.63Q138.73-0.63 139.75-1.71 140.78-2.78 140.75-3.96L140.75-3.96Q140.75-5.59 138.56-7.52L138.56-7.52 135.33-10.28Q132.4-12.77 132.38-15.04L132.38-15.04Q132.38-17.72 134.2-18.91 136.02-20.09 138.39-20.09L138.39-20.09Q140.85-20.09 143.05-18.7Z" opacity="1" transform="matrix(1,0,0,1,0,0)" fill="#ffffff" class="wordmark-text-0" data-fill-palette-color="primary" id="text-0"></path></svg></g></svg></g></svg></g></svg></g><g><svg viewBox="0 0 190.80966679399728 190.80966679399728" height="190.80966679399728" width="190.80966679399728"><g><svg xmlns="http://www.w3.org/2000/svg" xmlns:xlink="http://www.w3.org/1999/xlink" version="1.1" x="0" y="0" viewBox="5 5 90 90" enable-background="new 0 0 100 100" xml:space="preserve" height="190.80966679399728" width="190.80966679399728" class="icon-icon-0" data-fill-palette-color="accent" id="icon-0"><path d="M56.586 71.031c0 0.395-0.194 0.741-0.493 0.954-0.008 0.006-0.016 0.012-0.022 0.017-0.11 0.08-0.236 0.143-0.374 0.182l-3.491 1.175h1.611c0.296 0 0.568 0.154 0.72 0.408 0.15 0.255 0.155 0.569 0.016 0.829-0.915 1.672-2.663 2.711-4.564 2.711-1.903 0-3.651-1.039-4.564-2.711-0.128-0.235-0.134-0.516-0.023-0.757 0.09-0.356 0.356-0.66 0.757-0.777l2.555-0.858h-4.154c-0.646 0-1.171-0.525-1.171-1.172 0-0.295 0.11-0.566 0.291-0.771 0.149-0.202 0.369-0.362 0.634-0.44l3.696-1.115h-3.45c-0.646 0-1.171-0.524-1.171-1.171 0-0.647 0.525-1.172 1.171-1.172h10.857c0.508 0 0.94 0.324 1.103 0.777 0.021 0.045 0.04 0.092 0.054 0.141 0.172 0.586-0.191 1.21-0.812 1.391l-3.938 1.192h3.595C56.062 69.86 56.586 70.386 56.586 71.031L56.586 71.031z" fill="#ffffff" data-fill-palette-color="accent"></path><path d="M50 17.591l1.8 8.721 3.582-8.152-0.052 8.902 5.19-7.228-1.901 8.694 6.585-5.995-3.666 8.113 7.683-4.491-5.269 7.167 8.448-2.796-6.648 5.919 8.846-0.976-7.729 4.406 8.857 0.88-8.48 2.706 8.48 2.7-8.857 0.885 7.729 4.405-8.846-0.98 6.648 5.92-8.448-2.797 5.269 7.178-6.724-3.933 6.886 12.698-9.023-8.948 6.126 17.814L56.83 63.116c0.136-0.247 0.211-0.517 0.211-0.79 0-2.815 0.876-4.772 2.013-6.573 2.08-3.304 5.034-6.085 5.034-12.678 0-7.78-6.309-14.087-14.088-14.087-7.781 0-14.087 6.307-14.087 14.087 0 10.184 7.041 11.271 7.041 19.251 0 0.243 0.065 0.484 0.176 0.71l-9.611 14.987 6.024-17.302-7.644 7.619 5.97-11.717-7.091 4.148 5.271-7.177-8.45 2.797 6.649-5.916-8.852 0.977 7.734-4.406-8.856-0.88 8.479-2.706-8.479-2.706 8.854-0.879-7.734-4.406 8.852 0.976-6.649-5.919 8.45 2.796-5.271-7.171 7.685 4.496-3.666-8.112 6.583 5.99-1.901-8.696 5.19 7.232-0.045-8.902 3.576 8.152L50 17.591M74.598 35.47h0.005M50 7.697l-1.959 9.489-0.532 2.574-1.055-2.405-3.88-8.845 0.049 9.659 0.013 2.63-1.533-2.137-5.647-7.87 2.068 9.463 0.562 2.568-1.944-1.769-7.148-6.503 3.979 8.807 1.082 2.393-2.268-1.327-8.352-4.887 5.73 7.797 1.557 2.118-2.496-0.826-9.181-3.038 7.223 6.43 1.967 1.751-2.62-0.289-9.608-1.059 8.398 4.785 2.28 1.299-2.607 0.259-9.623 0.956 9.213 2.94 2.508 0.8-2.508 0.8-9.211 2.939 9.621 0.957 2.609 0.259-2.28 1.298-8.402 4.786 9.611-1.06 2.616-0.289-1.962 1.746-7.232 6.435 9.19-3.042 2.499-0.827-1.56 2.125-5.722 7.792 8.344-4.882 1.201-0.703-2.872 5.637-5.702 11.191 8.896-8.866 1.482-1.479-3.164 9.087-5.568 15.99 9.14-14.253 9.611-14.987 0.14-1.903c-0.031-4.308-1.824-6.88-3.558-9.368-1.791-2.569-3.482-4.996-3.482-9.77 0-6.665 5.422-12.087 12.087-12.087 6.665 0 12.088 5.422 12.088 12.087 0 4.773-1.692 7.2-3.483 9.768-0.414 0.594-0.842 1.208-1.243 1.845-1.135 1.798-2.296 4.099-2.32 7.531l0.098 1.966 9.655 15.289 9.163 14.508-5.58-16.227-3.339-9.707 2.937 2.911 9.634 9.554-6.468-11.927-3.472-6.403 0.542 0.317 8.337 4.876-5.715-7.786-1.561-2.126 2.499 0.827 9.183 3.04-7.224-6.433-1.962-1.747 2.608 0.29 9.618 1.065-8.407-4.791-2.283-1.301 2.62-0.262 9.622-0.962-9.215-2.934-2.501-0.796 2.502-0.798 9.213-2.939-9.622-0.957-2.614-0.26 2.278-1.299 8.394-4.784-9.604 1.059-2.613 0.288 1.966-1.75 7.223-6.431-9.181 3.038-2.493 0.825 1.553-2.112 5.728-7.791-8.349 4.88-2.268 1.326 1.083-2.397 3.982-8.813-7.151 6.51-1.943 1.77 0.561-2.563 2.067-9.456-5.646 7.862-1.53 2.129 0.016-2.625 0.056-9.663-3.887 8.846-1.06 2.412-0.532-2.58L50 7.697 50 7.697z" fill="#ffffff" data-fill-palette-color="accent"></path></svg></g></svg></g></svg></g><defs></defs></svg><rect width="395.52" height="121.93584429250156" fill="none" stroke="none" visibility="hidden"></rect></g></svg></g></svg>